<svg xmlns="http://www.w3.org/2000/svg" width="24" height="24" viewBox="0 0 24 24" fill="none">
  <path d="M3 16.75H7V18.55C7 19.2127 6.46274 19.75 5.8 19.75H4.2C3.53726 19.75 3 19.2127 3 18.55V16.75Z" fill="#49495A"/>
  <path d="M17 16.75H21V18.55C21 19.2127 20.4627 19.75 19.8 19.75H18.2C17.5373 19.75 17 19.2127 17 18.55V16.75Z" fill="#49495A"/>
  <path fill-rule="evenodd" clip-rule="evenodd" d="M19.1412 5.96703C18.9027 5.22496 18.2536 4.68671 17.4788 4.60148C13.3215 4.14416 10.5317 4.14304 6.51418 4.59747C5.74282 4.68472 5.09824 5.22211 4.86069 5.96114L3.19189 11.153C3.06474 11.5485 3 11.9615 3 12.377V16.7499C3 17.3022 3.44772 17.7499 4 17.7499H20C20.5523 17.7499 21 17.3022 21 16.7499V12.377C21 11.9615 20.9353 11.5485 20.8081 11.153L19.1412 5.96703Z" fill="#007AFF"/>
  <path d="M6.54583 6.83331C6.67096 6.47579 6.9884 6.2189 7.36449 6.17385C10.8911 5.75139 13.1121 5.74873 16.6362 6.17343C17.0119 6.2187 17.3289 6.4755 17.454 6.8327L18.5344 9.91961C18.7619 10.5698 18.2794 11.25 17.5905 11.25H6.40948C5.72063 11.25 5.23806 10.5698 5.46562 9.91961L6.54583 6.83331Z" fill="white"/>
  <path d="M20.4388 8.84711C20.2286 8.32162 20.6266 7.75 21.1926 7.75C21.6344 7.75 22 8.10817 22 8.55V9.65371C22 9.98303 21.733 10.25 21.4037 10.25C21.1599 10.25 20.9406 10.1016 20.8501 9.87517L20.4388 8.84711Z" fill="#007AFF"/>
  <path d="M3.56115 8.84711C3.77135 8.32162 3.37339 7.75 2.80742 7.75C2.36559 7.75 2 8.10817 2 8.55V9.65371C2 9.98303 2.26697 10.25 2.59629 10.25C2.84012 10.25 3.05938 10.1016 3.14993 9.87517L3.56115 8.84711Z" fill="#007AFF"/>
  <circle cx="6" cy="14.75" r="1" fill="white"/>
  <circle cx="18" cy="14.75" r="1" fill="white"/>
  <g style="mix-blend-mode:darken" opacity="0.3">
    <rect x="8.5" y="13.75" width="7" height="2" rx="0.6" fill="#1C1C22"/>
  </g>
</svg>