<svg xmlns="http://www.w3.org/2000/svg" width="25" height="25" viewBox="0 0 25 25" fill="none">
  <path d="M3.5 17.25H7.5V19.05C7.5 19.7127 6.96274 20.25 6.3 20.25H4.7C4.03726 20.25 3.5 19.7127 3.5 19.05V17.25Z" fill="#49495A"/>
  <path d="M17.5 17.25H21.5V19.05C21.5 19.7127 20.9627 20.25 20.3 20.25H18.7C18.0373 20.25 17.5 19.7127 17.5 19.05V17.25Z" fill="#49495A"/>
  <path fill-rule="evenodd" clip-rule="evenodd" d="M19.6412 6.46709C19.4027 5.72502 18.7536 5.18677 17.9788 5.10154C13.8215 4.64422 11.0317 4.6431 7.01418 5.09753C6.24282 5.18478 5.59824 5.72217 5.36069 6.4612L3.69189 11.653C3.56474 12.0486 3.5 12.4616 3.5 12.8771V17.25C3.5 17.8023 3.94772 18.25 4.5 18.25H20.5C21.0523 18.25 21.5 17.8023 21.5 17.25V12.8771C21.5 12.4616 21.4353 12.0486 21.3081 11.653L19.6412 6.46709Z" fill="#CDCDD6"/>
  <path d="M7.04583 7.33337C7.17096 6.97585 7.4884 6.71896 7.86449 6.67391C11.3911 6.25145 13.6121 6.24879 17.1362 6.67349C17.5119 6.71877 17.8289 6.97556 17.954 7.33276L19.0344 10.4197C19.2619 11.0698 18.7794 11.75 18.0905 11.75H6.90948C6.22063 11.75 5.73806 11.0698 5.96562 10.4197L7.04583 7.33337Z" fill="#787891"/>
  <path d="M20.9388 9.34711C20.7286 8.82162 21.1266 8.25 21.6926 8.25C22.1344 8.25 22.5 8.60817 22.5 9.05V10.1537C22.5 10.483 22.233 10.75 21.9037 10.75C21.6599 10.75 21.4406 10.6016 21.3501 10.3752L20.9388 9.34711Z" fill="#787891"/>
  <path d="M4.06115 9.34711C4.27135 8.82162 3.87339 8.25 3.30742 8.25C2.86559 8.25 2.5 8.60817 2.5 9.05V10.1537C2.5 10.483 2.76697 10.75 3.09629 10.75C3.34012 10.75 3.55938 10.6016 3.64993 10.3752L4.06115 9.34711Z" fill="#787891"/>
  <circle cx="6.5" cy="15.25" r="1" fill="white"/>
  <circle cx="18.5" cy="15.25" r="1" fill="white"/>
  <rect x="9" y="14.25" width="7" height="2" rx="0.6" fill="#B0B0BF"/>
</svg>