<svg width="132" height="100" viewBox="0 0 132 100" fill="none" xmlns="http://www.w3.org/2000/svg">
<path d="M71.8965 33.6903C78.5556 29.8995 89.3153 30.0189 95.7168 33.955L118.68 48.0731C118.749 48.1155 118.816 48.1591 118.884 48.202L123.49 46.9188L123.341 55.2753L123.309 55.2919C123.12 57.7337 121.374 60.1396 118.094 61.9696L59.8643 94.4491C53.2781 98.1227 42.7889 98.0344 36.3906 94.2518L13.543 80.744C10.0641 78.6871 8.44967 75.9778 8.6875 73.3153C8.65618 73.0524 8.63967 72.7855 8.63965 72.5165V66.6473C8.63975 66.1659 9.03027 65.7754 9.51172 65.7753C9.59659 65.7753 9.68141 65.788 9.7627 65.8124L13.5039 66.9344C13.5918 66.8822 13.6812 66.8306 13.7715 66.7792L71.8965 33.6903Z" fill="url(#paint0_linear_600_5978)"/>
<rect x="-3.01458" width="50.001" height="91.6672" rx="11.85" transform="matrix(-0.866025 -0.5 -0.866025 0.5 124.734 46.4868)" fill="#E6F2FF" stroke="white" stroke-width="3.48094"/>
<path d="M109.145 55.8226L75.8275 46.1497L55.9609 41.2504L46.1553 46.8662L82.5575 72.3873L108.328 57.5097L109.145 55.8226Z" fill="#E6F2FF"/>
<path d="M111.768 40.2965L97.7653 32.212C95.9807 33.2424 95.9807 34.913 97.7653 35.9433L105.305 40.2965C107.09 41.3269 109.983 41.3269 111.768 40.2965Z" fill="white"/>
<path d="M55.5864 40.1091L111.064 56.8188" stroke="white" stroke-width="3.19086" stroke-linecap="round"/>
<path d="M73.5562 44.6869L68.2135 63.6575" stroke="white" stroke-width="2.78826" stroke-linecap="round"/>
<path d="M100.507 48.4703L94.7936 45.507V53.989L100.507 57.1358V48.4703Z" fill="#8BB7E7"/>
<path d="M103.699 46.8239L100.507 48.4607L100.507 57.1356L103.699 55.0717L103.699 46.8239Z" fill="#5496DF"/>
<path d="M103.672 46.8337L98.0584 44.0627L94.7898 45.5084L100.482 48.5999L103.672 46.8337Z" fill="#BED5F0"/>
<path d="M94.6768 52.4839L88.963 49.5206V55.6963L94.6768 58.843L94.6768 52.4839Z" fill="#8BB7E7"/>
<path d="M97.8686 50.8462L94.6773 52.4829L94.6773 58.8427L97.8687 56.7788L97.8686 50.8462Z" fill="#5496DF"/>
<path d="M97.8424 50.8426L92.2283 48.0716L88.9597 49.5173L94.6515 52.6088L97.8424 50.8426Z" fill="#BED5F0"/>
<path d="M59.731 85.2483L50.7899 70.6508L29.7467 78.5558V81.6049L40.9762 87.9262C49.9598 91.1984 57.2226 87.5043 59.731 85.2483Z" fill="#DFE7FE"/>
<path d="M93.2871 29.5609L87.9444 48.5315" stroke="white" stroke-width="2.78826" stroke-linecap="round"/>
<path d="M44.3286 70.5065L21.917 59.5024" stroke="white" stroke-width="2.737" stroke-linecap="round"/>
<path d="M67.2695 63.6575L27.5314 80.9507" stroke="white" stroke-width="3.19086" stroke-linecap="round"/>
<path d="M51.146 70.6016L61.1047 85.4587" stroke="white" stroke-width="2.78826" stroke-linecap="round"/>
<path d="M105.8 38.4174L100.507 35.0891" stroke="#E9E9ED" stroke-width="1.16031" stroke-linecap="round"/>
<path d="M44.6172 46.2609L83.0458 73.1482" stroke="white" stroke-width="3.19086" stroke-linecap="round"/>
<path d="M47.5356 54.8501L41.8219 51.8868V55.8252L47.5356 58.9719L47.5356 54.8501Z" fill="#4AA0FF"/>
<path d="M50.7275 53.211L47.5361 54.8478L47.5362 58.9717L50.7275 56.9077L50.7275 53.211Z" fill="#007AFF"/>
<path d="M50.7307 53.2216L45.1096 50.3134L41.8251 51.8885L47.5328 54.8506L50.7307 53.2216Z" fill="#88C1FF"/>
<path d="M50.4365 71.0947L44.7228 68.1314V72.0698L50.4365 75.2165L50.4365 71.0947Z" fill="#CDDCF3"/>
<path d="M53.6284 69.4557L50.437 71.0924L50.4371 75.2163L53.6284 73.1524L53.6284 69.4557Z" fill="#A5C2E0"/>
<path d="M53.6316 69.4662L48.0105 66.558L44.7259 68.1331L50.4337 71.0953L53.6316 69.4662Z" fill="#F6F9FE"/>
<path d="M44.3862 73.0209L38.6725 70.0576V76.2333L44.3862 79.38L44.3862 73.0209Z" fill="#CDDCF3"/>
<path d="M47.5776 71.383L44.3862 73.0198L44.3863 79.3796L47.5776 77.3157L47.5776 71.383Z" fill="#A5C2E0"/>
<path d="M47.5514 71.3795L41.9373 68.6084L38.6687 70.0542L44.3605 73.1457L47.5514 71.3795Z" fill="#F6F9FE"/>
<circle cx="7.3937" cy="7.3937" r="7.3937" transform="matrix(-0.965926 -0.258819 0.0523359 0.99863 70.5439 16.816)" fill="white"/>
<path d="M74.2104 14.2849C67.8227 6.76087 57.9913 4.12662 52.2214 8.39296C46.4182 12.6841 46.9235 22.3252 53.3482 29.8928C53.3703 29.9188 53.3924 29.9452 53.4146 29.9711L62.9284 41.177C64.0472 42.4948 65.6731 42.9305 66.6836 42.1832L75.2762 35.8289L75.3371 35.7847C81.1401 31.4935 80.6348 21.8524 74.2104 14.2849ZM60.0197 17.743C61.8911 16.3593 65.1112 17.2222 67.183 19.6624C69.2179 22.0593 69.3759 25.0753 67.5379 26.4344C65.6665 27.8181 62.4464 26.9553 60.3746 24.515C58.34 22.1182 58.1818 19.1021 60.0197 17.743Z" fill="#007AFF" stroke="white" stroke-width="2"/>
<g filter="url(#filter0_f_600_5978)">
<ellipse cx="5.96247" cy="3.65266" rx="5.96247" ry="3.65266" transform="matrix(-1.02036 -0.273404 0.211558 0.892368 70.543 48.1775)" fill="#007AFF"/>
</g>
<defs>
<filter id="filter0_f_600_5978" x="51.3523" y="38.4153" width="27.7593" height="22.7831" filterUnits="userSpaceOnUse" color-interpolation-filters="sRGB">
<feFlood flood-opacity="0" result="BackgroundImageFix"/>
<feBlend mode="normal" in="SourceGraphic" in2="BackgroundImageFix" result="shape"/>
<feGaussianBlur stdDeviation="3.87318" result="effect1_foregroundBlur_600_5978"/>
</filter>
<linearGradient id="paint0_linear_600_5978" x1="9.59085" y1="73.5709" x2="101.452" y2="106.716" gradientUnits="userSpaceOnUse">
<stop stop-color="#2E5178"/>
<stop offset="0.461538" stop-color="#6E8BAB"/>
<stop offset="1" stop-color="#294A6F"/>
</linearGradient>
</defs>
</svg>
