<svg width="86" height="20" viewBox="0 0 86 20" fill="none" xmlns="http://www.w3.org/2000/svg">
<path d="M23.4545 9.74572V3.63973C23.4545 2.32922 24.5199 1.26685 25.834 1.26685H38.5312C39.8454 1.26685 40.9107 2.32922 40.9107 3.63973V16.3019C40.9107 17.6124 39.8454 18.6748 38.5312 18.6748H25.834C24.5199 18.6748 23.4545 17.6124 23.4545 16.3019C23.4545 14.9914 24.5199 13.9291 25.834 13.9291H36.1518V6.01261H28.2134V9.74572C28.2134 11.0562 27.1481 12.1186 25.834 12.1186C24.5199 12.1186 23.4545 11.0562 23.4545 9.74572Z" fill="#32323E"/>
<path d="M58.0423 10.339C58.0423 7.62437 55.8356 5.42374 53.1135 5.42374C50.3914 5.42374 48.1846 7.62437 48.1846 10.339C48.1846 13.0536 50.3914 15.2542 53.1135 15.2542C55.8356 15.2542 58.0423 13.0536 58.0423 10.339ZM62.8012 10.339C62.8012 15.6746 58.4639 20 53.1135 20C47.7631 20 43.4257 15.6746 43.4257 10.339C43.4257 5.00336 47.7631 0.677979 53.1135 0.677979C58.4639 0.677979 62.8012 5.00336 62.8012 10.339Z" fill="#32323E"/>
<path d="M72.8634 2.29741C73.6068 1.21677 75.088 0.941797 76.1717 1.68317C77.2553 2.42456 77.531 3.90151 76.7876 4.98213L70.6325 13.9291H79.0185L77.2188 11.3132C76.4754 10.2326 76.7513 8.75564 77.8349 8.01427C78.9186 7.2729 80.3996 7.54789 81.143 8.62851L85.4986 14.9596C85.9982 15.6859 86.0533 16.6284 85.6418 17.4076C85.2303 18.1869 84.4196 18.6749 83.5364 18.6749H66.1146C65.2314 18.6749 64.4209 18.1869 64.0094 17.4076C63.5978 16.6284 63.653 15.6859 64.1526 14.9596L72.8634 2.29741Z" fill="#32323E"/>
<path d="M14.3734 2.45473C17.6589 5.7277 17.6589 11.0342 14.3734 14.3072C7.20767 21.4456 9.64132 21.4456 2.47558 14.3072C-0.809923 11.0342 -0.809923 5.7277 2.47558 2.45473C5.76107 -0.818242 11.0879 -0.818242 14.3734 2.45473ZM10.4525 6.36066C9.33248 5.24487 7.51651 5.24487 6.39645 6.36066C5.2764 7.47644 5.2764 9.28549 6.39645 10.4013C7.51651 11.5171 9.33248 11.5171 10.4525 10.4013C11.5726 9.28549 11.5726 7.47644 10.4525 6.36066Z" fill="#007AFF"/>
</svg>
