<svg width="106" height="30" viewBox="0 0 106 30" fill="none" xmlns="http://www.w3.org/2000/svg">
<path opacity="0.4" d="M64.7078 29.3039C70.2028 29.3039 74.6573 27.2994 74.6573 24.8266C74.6573 22.3539 70.2028 20.3494 64.7078 20.3494C59.2128 20.3494 54.7583 22.3539 54.7583 24.8266C54.7583 27.2994 59.2128 29.3039 64.7078 29.3039Z" fill="#007AFF"/>
<path opacity="0.8" d="M64.708 27.3141C68.005 27.3141 70.6777 26.2005 70.6777 24.8267C70.6777 23.453 68.005 22.3394 64.708 22.3394C61.411 22.3394 58.7383 23.453 58.7383 24.8267C58.7383 26.2005 61.411 27.3141 64.708 27.3141Z" fill="#007AFF"/>
<path fill-rule="evenodd" clip-rule="evenodd" d="M72.8272 17.943C72.8113 17.9572 72.7953 17.9714 72.7793 17.9855L65.4837 24.4999C64.9254 24.9984 64.0819 24.9984 63.5236 24.4999L56.2284 17.9858C56.2123 17.9716 56.1962 17.9573 56.1801 17.943C51.5832 13.8383 51.5832 7.18323 56.1801 3.07853C60.7771 -1.02618 68.2302 -1.02618 72.8272 3.07853C77.4241 7.18323 77.4241 13.8383 72.8272 17.943ZM61.0862 13.5623C62.9736 15.2476 66.0337 15.2476 67.9211 13.5623C69.8085 11.8771 69.8085 9.14467 67.9211 7.45939C66.0337 5.77411 62.9736 5.77411 61.0862 7.45939C59.1989 9.14467 59.1989 11.8771 61.0862 13.5623Z" fill="white"/>
<path d="M0.305667 8.661C0.305667 3.82591 4.66836 1.04712 12.2545 1.04712C19.9795 1.04712 24.231 3.93706 24.231 9.24454H16.7839C16.7839 7.32718 14.7832 6.38239 11.921 6.38239C9.17 6.38239 7.66946 7.2716 7.66946 8.57763C7.66946 9.99482 9.61461 10.2727 11.921 10.4394C17.2841 10.8562 24.6201 10.7173 24.6201 16.8862C24.6201 22.3604 20.3685 25.0558 12.5045 25.0558C4.25155 25.0558 0 22.0825 0 16.7473H7.47494C7.47494 18.7202 9.33673 19.7206 12.9769 19.7206C15.8669 19.7206 17.2285 19.0815 17.2285 17.8032C17.2285 16.1082 14.8665 15.8581 11.8098 15.6635C6.94697 15.3579 0.305667 15.1911 0.305667 8.661Z" fill="white"/>
<path d="M26.8945 25.0559V1.71411H42.678C47.791 1.71411 50.9588 4.74299 50.9588 9.71702C50.9588 14.83 47.6243 18.3313 42.678 18.3313H34.2305V25.0559H26.8945ZM34.2305 12.6625H40.5106C42.5113 12.6625 43.6228 11.7455 43.6228 10.1894C43.6228 8.60551 42.4557 7.71629 40.5106 7.71629H34.2305V12.6625Z" fill="white"/>
<path d="M88.2916 25.0559V7.71629H78.5103V1.71411H105.381V7.71629H95.6276V25.0559H88.2916Z" fill="white"/>
</svg>
