<svg width="506" height="118" viewBox="0 0 506 118" fill="none" xmlns="http://www.w3.org/2000/svg">
<path d="M138 57.5V21.4746C138 13.7426 144.268 7.47461 152 7.47461H226.707C234.439 7.47461 240.707 13.7426 240.707 21.4746V96.1816C240.707 103.914 234.439 110.182 226.707 110.182H152C144.268 110.182 138 103.914 138 96.1816C138 88.4497 144.268 82.1816 152 82.1816H212.707V35.4746H166V57.5C166 65.232 159.732 71.5 152 71.5C144.268 71.5 138 65.232 138 57.5Z" fill="white"/>
<path d="M341.505 61C341.505 44.9837 328.521 32 312.505 32C296.489 32 283.505 44.9837 283.505 61C283.505 77.0163 296.489 90 312.505 90C328.521 90 341.505 77.0163 341.505 61ZM369.505 61C369.505 92.4802 343.985 118 312.505 118C281.025 118 255.505 92.4802 255.505 61C255.505 29.5198 281.025 4 312.505 4C343.985 4 369.505 29.5198 369.505 61Z" fill="white"/>
<path d="M428.708 13.5547C433.082 7.17888 441.797 5.55656 448.173 9.93066C454.548 14.3049 456.171 23.0189 451.797 29.3945L415.582 82.1816H464.923L454.334 66.748C449.96 60.3723 451.583 51.6582 457.959 47.2842C464.335 42.9101 473.049 44.5325 477.423 50.9082L503.05 88.2617C505.989 92.5466 506.314 98.1074 503.893 102.705C501.471 107.303 496.701 110.182 491.505 110.182H389C383.804 110.182 379.035 107.303 376.613 102.705C374.192 98.1072 374.516 92.5468 377.456 88.2617L428.708 13.5547Z" fill="white"/>
<path d="M84.5692 14.4829C103.9 33.7934 103.9 65.102 84.5692 84.4125C42.4079 126.529 56.7268 126.529 14.5656 84.4125C-4.76536 65.102 -4.76536 33.7934 14.5656 14.4829C33.8965 -4.82763 65.2382 -4.82763 84.5692 14.4829ZM61.4998 37.5279C54.9097 30.9447 44.2251 30.9447 37.635 37.5279C31.0449 44.111 31.0449 54.7844 37.635 61.3675C44.2251 67.9506 54.9097 67.9506 61.4998 61.3675C68.0899 54.7844 68.0899 44.111 61.4998 37.5279Z" fill="#007AFF"/>
</svg>
