<svg xmlns="http://www.w3.org/2000/svg" width="143" height="135" viewBox="0 0 143 135" fill="none">
  <ellipse cx="56.5398" cy="71.1455" rx="37.9825" ry="39.1695" transform="rotate(3.82175 56.5398 71.1455)" fill="#FFE4E4"/>
  <mask id="mask0_663_9713" style="mask-type:alpha" maskUnits="userSpaceOnUse" x="18" y="31" width="77" height="80">
    <ellipse cx="56.5398" cy="71.1455" rx="37.9825" ry="39.1695" transform="rotate(3.82175 56.5398 71.1455)" fill="#FFE4E4"/>
  </mask>
  <g mask="url(#mask0_663_9713)">
    <path d="M11.8114 72.9153C33.0905 74.3371 60.4193 62.5618 70.4005 50.607C69.2499 67.8306 77.7377 83.2676 95.5139 79.868C102.711 68.2713 108.494 41.7755 74.0537 28.5659C31.0028 12.054 -17.8442 70.9339 11.8114 72.9153Z" fill="#32323E"/>
  </g>
  <ellipse cx="3.41973" cy="4.73456" rx="3.41973" ry="4.73456" transform="matrix(0.997776 0.0666526 -0.0883276 0.996091 56.7766 77.8853)" fill="#32323E"/>
  <ellipse cx="3.41973" cy="4.73456" rx="3.41973" ry="4.73456" transform="matrix(0.997776 0.0666527 -0.0883276 0.996091 40.9016 76.8242)" fill="#32323E"/>
  <path d="M60.147 70.5659C60.7229 71.5377 62.4837 73.3441 64.9195 72.7957" stroke="#32323E" stroke-width="2.37391" stroke-linecap="round"/>
  <path d="M51.8681 92.2457C53.7267 92.3699 55.587 93.383 56.1422 94.9427C56.3621 95.5602 55.7714 96.0753 55.1174 96.0316L49.1958 95.636C48.5417 95.5923 48.023 95.0148 48.2339 94.3941C48.7356 92.9175 50.0178 92.1221 51.8681 92.2457Z" fill="#FF8E8E"/>
  <path d="M84.2752 83.2082C82.9241 88.5685 82.9614 93.1994 86.8227 94.1727C90.684 95.146 97.4313 90.0133 98.7824 84.653C100.134 79.2927 97.5744 76.2381 93.7131 75.2648C89.8518 74.2916 85.6263 77.8479 84.2752 83.2082Z" fill="#FFE4E4"/>
  <path d="M86.8464 86.729C92.9827 88.8032 97.7356 94.0028 99.8211 98.4508C101.686 102.429 101.906 106.37 101.742 109.243C101.738 109.621 101.716 110.001 101.677 110.382C101.669 110.911 101.581 111.421 101.422 111.9C101.389 112.041 101.355 112.182 101.317 112.323C99.55 118.872 92.8086 122.749 86.2594 120.982C79.7103 119.215 75.8335 112.474 77.6004 105.925C78.7323 101.729 81.9063 98.6332 85.7626 97.4122C85.1014 96.9449 84.3842 96.5734 83.6069 96.3107L83.3639 96.2219C80.8754 95.2381 79.5694 92.4636 80.4358 89.9001C81.3024 87.3372 84.0226 85.9246 86.5972 86.6517L86.8464 86.729Z" fill="url(#paint0_linear_663_9713)"/>
  <path d="M96.4999 41.21L119.774 24.0001" stroke="#FF7F7F" stroke-width="6.7" stroke-linecap="round"/>
  <path d="M113.498 46.3188L101.448 20" stroke="#FF7F7F" stroke-width="6.7" stroke-linecap="round"/>
  <defs>
    <linearGradient id="paint0_linear_663_9713" x1="83.441" y1="85.7992" x2="88.9477" y2="108.237" gradientUnits="userSpaceOnUse">
      <stop stop-color="#FFB6B6"/>
      <stop offset="1" stop-color="#FFE4E4"/>
    </linearGradient>
  </defs>
</svg>