<svg width="20" height="20" viewBox="0 0 20 20" fill="none" xmlns="http://www.w3.org/2000/svg">
<mask id="path-1-outside-1_422_7849" maskUnits="userSpaceOnUse" x="1.62695" y="1" width="17" height="18" fill="black">
<rect fill="white" x="1.62695" y="1" width="17" height="18"/>
<path d="M10 3C13.5198 3 16.373 5.69697 16.373 9.02344C16.3728 13.0954 12.1409 15.9357 10.5742 16.8477C10.2179 17.0551 9.7853 17.0504 9.43262 16.8369C7.87116 15.8913 3.62719 12.9594 3.62695 9.02344C3.62695 5.69698 6.48026 3.00003 10 3ZM10 5.95117C8.34315 5.95117 7 7.07617 7 8.95117C7.00009 10.8261 8.3432 11.9512 10 11.9512C11.6568 11.9512 12.9999 10.8261 13 8.95117C13 7.07617 11.6569 5.95117 10 5.95117Z"/>
</mask>
<path d="M10 3V1.30051H9.99999L10 3ZM16.373 9.02344L18.0725 9.02353V9.02344H16.373ZM10.5742 16.8477L11.4292 18.3165L11.4292 18.3164L10.5742 16.8477ZM9.43262 16.8369L8.55226 18.2906L8.55251 18.2908L9.43262 16.8369ZM3.62695 9.02344H1.92746V9.02354L3.62695 9.02344ZM10 5.95117V4.25168V4.25168V5.95117ZM7 8.95117H5.30051V8.95126L7 8.95117ZM10 11.9512V13.6507V13.6507V11.9512ZM13 8.95117L14.6995 8.95126V8.95117H13ZM10 3V4.69949C12.6727 4.69949 14.6736 6.7246 14.6736 9.02344H16.373H18.0725C18.0725 4.66933 14.3668 1.30051 10 1.30051V3ZM16.373 9.02344L14.6736 9.02334C14.6735 10.4491 13.9299 11.7795 12.8231 12.9562C11.7274 14.1211 10.4334 14.9632 9.71924 15.3789L10.5742 16.8477L11.4292 18.3164C12.2817 17.8202 13.887 16.7861 15.299 15.2849C16.6999 13.7955 18.0724 11.6697 18.0725 9.02353L16.373 9.02344ZM10.5742 16.8477L9.71928 15.3789C9.90312 15.2719 10.136 15.2761 10.3127 15.3831L9.43262 16.8369L8.55251 18.2908C9.43462 18.8248 10.5327 18.8383 11.4292 18.3165L10.5742 16.8477ZM9.43262 16.8369L10.313 15.3832C9.59615 14.9491 8.29157 14.0733 7.18556 12.8907C6.06054 11.6878 5.32653 10.3694 5.32645 9.02334L3.62695 9.02344L1.92746 9.02354C1.92761 11.6134 3.3157 13.729 4.70309 15.2124C6.10949 16.7162 7.70762 17.7791 8.55226 18.2906L9.43262 16.8369ZM3.62695 9.02344H5.32645C5.32645 6.72463 7.32728 4.69952 10 4.69949L10 3L9.99999 1.30051C5.63324 1.30054 1.92746 4.66934 1.92746 9.02344H3.62695ZM10 5.95117V4.25168C8.78762 4.25168 7.60258 4.66641 6.7083 5.51577C5.80052 6.37796 5.30051 7.58644 5.30051 8.95117H7H8.69949C8.69949 8.44091 8.87106 8.14938 9.04906 7.98032C9.24057 7.79843 9.55553 7.65067 10 7.65067V5.95117ZM7 8.95117L5.30051 8.95126C5.30057 10.3159 5.80061 11.5243 6.70834 12.3865C7.60257 13.2359 8.78758 13.6507 10 13.6507V11.9512V10.2517C9.55562 10.2517 9.24067 10.1039 9.04914 9.922C8.87109 9.75289 8.69952 9.46131 8.69949 8.95109L7 8.95117ZM10 11.9512V13.6507C11.2124 13.6507 12.3974 13.2359 13.2917 12.3865C14.1994 11.5243 14.6994 10.3159 14.6995 8.95126L13 8.95117L11.3005 8.95109C11.3005 9.46131 11.1289 9.75289 10.9509 9.922C10.7593 10.1039 10.4444 10.2517 10 10.2517V11.9512ZM13 8.95117H14.6995C14.6995 7.58644 14.1995 6.37796 13.2917 5.51577C12.3974 4.66641 11.2124 4.25168 10 4.25168V5.95117V7.65067C10.4445 7.65067 10.7594 7.79843 10.9509 7.98032C11.1289 8.14938 11.3005 8.44091 11.3005 8.95117H13Z" fill="#B0B0BF" mask="url(#path-1-outside-1_422_7849)"/>
</svg>
