<svg xmlns="http://www.w3.org/2000/svg" width="24" height="24" viewBox="0 0 24 24" fill="none">
  <path d="M4 4.61171C4 3.67094 4.65618 2.85262 5.58029 2.67634C10.4219 1.75275 13.6688 1.81838 18.3975 2.68748C19.3317 2.85919 20 3.68198 20 4.63188V18C20 19.1045 19.1046 20 18 20H6C4.89543 20 4 19.1045 4 18V4.61171Z" fill="#00B140"/>
  <path d="M6 11.8008C6 12.8065 6.74693 13.6605 7.74722 13.7644C10.8872 14.0905 13.1679 14.0685 16.2384 13.7573C17.2446 13.6554 18 12.799 18 11.7876V8C18 6.89543 17.1046 6 16 6H8C6.89543 6 6 6.89543 6 8V11.8008Z" fill="white"/>
  <path d="M6 20H9V20.8C9 21.4627 8.46274 22 7.8 22H7.2C6.53726 22 6 21.4627 6 20.8V20Z" fill="#49495A"/>
  <path d="M21.1172 9C21.6215 9 22.0469 8.62446 22.1095 8.12403L22.3595 6.12403C22.4341 5.52718 21.9687 5 21.3672 5L21 5C20.7239 5 20.5 5.22386 20.5 5.5L20.5 8.5C20.5 8.77614 20.7239 9 21 9L21.1172 9Z" fill="#49495A"/>
  <path d="M2.88278 9C2.37846 9 1.95306 8.62446 1.8905 8.12403L1.6405 6.12403C1.5659 5.52718 2.03128 5 2.63278 5L3 5C3.27614 5 3.5 5.22386 3.5 5.5L3.5 8.5C3.5 8.77614 3.27614 9 3 9L2.88278 9Z" fill="#49495A"/>
  <path d="M15 20H18V20.8C18 21.4627 17.4627 22 16.8 22H16.2C15.5373 22 15 21.4627 15 20.8V20Z" fill="#49495A"/>
  <circle cx="7" cy="16" r="1" fill="white"/>
  <circle cx="17" cy="16" r="1" fill="white"/>
  <g style="mix-blend-mode:darken" opacity="0.3">
    <rect x="9" y="16.5" width="6" height="2" rx="0.6" fill="#1C1C22"/>
  </g>
  <g style="mix-blend-mode:darken" opacity="0.3">
    <rect x="10" y="3" width="4" height="1" rx="0.5" fill="#1C1C22"/>
  </g>
</svg>