<svg xmlns="http://www.w3.org/2000/svg" width="24" height="25" viewBox="0 0 24 25" fill="none">
  <path d="M4 5.11177C4 4.171 4.65618 3.35268 5.58029 3.1764C10.4219 2.25282 13.6688 2.31844 18.3975 3.18754C19.3317 3.35925 20 4.18204 20 5.13195V18.5C20 19.6046 19.1046 20.5 18 20.5H6C4.89543 20.5 4 19.6046 4 18.5V5.11177Z" fill="#CDCDD6"/>
  <path d="M6 12.3008C6 13.3065 6.74693 14.1605 7.74722 14.2644C10.8872 14.5905 13.1679 14.5685 16.2384 14.2573C17.2446 14.1554 18 13.299 18 12.2876V8.5C18 7.39543 17.1046 6.5 16 6.5H8C6.89543 6.5 6 7.39543 6 8.5V12.3008Z" fill="#787891"/>
  <path d="M6 20.5H9V21.3C9 21.9627 8.46274 22.5 7.8 22.5H7.2C6.53726 22.5 6 21.9627 6 21.3V20.5Z" fill="#49495A"/>
  <path d="M21.1172 9.5C21.6215 9.5 22.0469 9.12446 22.1095 8.62403L22.3595 6.62403C22.4341 6.02718 21.9687 5.5 21.3672 5.5L21 5.5C20.7239 5.5 20.5 5.72386 20.5 6L20.5 9C20.5 9.27614 20.7239 9.5 21 9.5L21.1172 9.5Z" fill="#787891"/>
  <path d="M2.88278 9.5C2.37846 9.5 1.95306 9.12446 1.8905 8.62403L1.6405 6.62403C1.5659 6.02718 2.03128 5.5 2.63278 5.5L3 5.5C3.27614 5.5 3.5 5.72386 3.5 6L3.5 9C3.5 9.27614 3.27614 9.5 3 9.5L2.88278 9.5Z" fill="#787891"/>
  <path d="M15 20.5H18V21.3C18 21.9627 17.4627 22.5 16.8 22.5H16.2C15.5373 22.5 15 21.9627 15 21.3V20.5Z" fill="#49495A"/>
  <circle cx="7" cy="16.5" r="1" fill="white"/>
  <circle cx="17" cy="16.5" r="1" fill="white"/>
  <rect x="9" y="17" width="6" height="2" rx="0.6" fill="#B0B0BF"/>
  <rect x="10" y="3.5" width="4" height="1" rx="0.5" fill="#CDCDD6"/>
</svg>