<svg width="20" height="20" viewBox="0 0 20 20" fill="none" xmlns="http://www.w3.org/2000/svg">
<path d="M8.55752 3.32501C9.19946 2.21621 10.8005 2.21621 11.4425 3.32501L17.7185 14.1649C18.3617 15.276 17.5595 16.6665 16.2756 16.6665H3.72353C2.43984 16.6662 1.63825 15.2759 2.28147 14.1649L8.55752 3.32501ZM9.99958 13.3332C9.53953 13.3333 9.16637 13.7064 9.16624 14.1665C9.16624 14.6266 9.53945 14.9997 9.99958 14.9998C10.4598 14.9998 10.8329 14.6267 10.8329 14.1665C10.8328 13.7064 10.4597 13.3332 9.99958 13.3332ZM9.99958 6.66649C9.53953 6.66661 9.16637 7.03977 9.16624 7.49982V11.6665C9.16624 12.1266 9.53945 12.4997 9.99958 12.4998C10.4598 12.4998 10.8329 12.1267 10.8329 11.6665V7.49982C10.8328 7.03969 10.4597 6.66649 9.99958 6.66649Z" fill="#F5A202"/>
</svg>
